<?xml version="1.0" encoding="UTF-8" standalone="no"?>
<svg
   version="1.1"
   id="svg1466"
   width="800"
   height="250"
   sodipodi:docname="logo.svg"
   inkscape:version="1.4 (86a8ad7, 2024-10-11)"
   xmlns:inkscape="http://www.inkscape.org/namespaces/inkscape"
   xmlns:sodipodi="http://sodipodi.sourceforge.net/DTD/sodipodi-0.dtd"
   xmlns="http://www.w3.org/2000/svg"
   xmlns:svg="http://www.w3.org/2000/svg">
  <sodipodi:namedview
     id="namedview1"
     pagecolor="#ffffff"
     bordercolor="#666666"
     borderopacity="1.0"
     inkscape:showpageshadow="2"
     inkscape:pageopacity="0.0"
     inkscape:pagecheckerboard="0"
     inkscape:deskcolor="#d1d1d1"
     inkscape:zoom="1.75125"
     inkscape:cx="518.20128"
     inkscape:cy="183.01213"
     inkscape:window-width="1920"
     inkscape:window-height="1009"
     inkscape:window-x="-8"
     inkscape:window-y="-8"
     inkscape:window-maximized="1"
     inkscape:current-layer="svg1466" />
  <path
     d="m 276.63589,396.81372 v -47.69129 h 15.62192 q 7.11241,0 7.11241,6.66789 v 0 15.87593 q 0,6.73139 -7.11241,6.73139 v 0 h -8.76352 v 18.41608 z m 15.87593,-26.22704 v 0 -13.7168 q 0,-1.33358 -0.44453,-1.7781 -0.44452,-0.44453 -1.8416,-0.44453 v 0 h -6.7314 v 18.22557 h 6.7314 q 1.39708,0 1.8416,-0.44453 0.44453,-0.44452 0.44453,-1.84161 z m 38.86428,-21.46425 v 42.10296 h 11.81169 v 5.58833 H 324.5177 v -47.69129 z m 59.56649,47.69129 h -6.92191 l -1.90511,-11.04965 h -10.03359 l -1.7781,11.04965 h -6.8584 l 8.44599,-47.69129 h 10.03359 z m -14.09783,-41.78545 -3.93723,25.14748 h 8.31899 z m 51.56502,26.67156 v 15.11389 h -6.98541 v -15.11389 l -10.16059,-32.5774 h 6.98541 l 6.60439,26.29054 6.28686,-26.29054 h 6.98541 z m 54.99423,-25.90951 v 7.23942 h -6.92191 v -6.28687 q 0,-1.39708 -0.44453,-1.7781 -0.50803,-0.44453 -1.8416,-0.44453 v 0 h -3.87373 q -1.39708,0 -1.84161,0.44453 -0.44452,0.38102 -0.44452,1.7781 v 0 32.51391 q 0,1.39708 0.44452,1.7781 0.44453,0.44453 1.84161,0.44453 v 0 h 3.87373 q 1.33357,0 1.8416,-0.44453 0.44453,-0.38102 0.44453,-1.7781 v 0 -11.62118 h -3.81022 v -5.33432 h 10.73213 v 17.78105 q 0,6.79489 -7.11242,6.79489 v 0 h -8.12848 q -7.11241,0 -7.11241,-6.79489 v 0 -34.29201 q 0,-6.66789 7.11241,-6.66789 v 0 h 8.12848 q 7.11242,0 7.11242,6.66789 z m 36.83215,21.71827 h -3.74672 v 19.30513 h -6.8584 v -47.69129 h 15.62192 q 7.04891,0 7.04891,6.66789 v 0 14.98687 q 0,5.77884 -5.0803,6.60439 v 0 l 7.55695,19.43214 h -7.42994 z m 2.92118,-22.86134 h -6.6679 v 17.40002 h 6.6679 q 1.39708,0 1.8416,-0.44453 0.44453,-0.38102 0.44453,-1.7781 v 0 -12.95476 q 0,-1.33358 -0.44453,-1.7781 -0.44452,-0.44453 -1.8416,-0.44453 z m 42.48398,-5.52482 v 0 h 8.446 q 7.11242,0 7.11242,6.66789 v 0 34.29201 q 0,6.73139 -7.11242,6.73139 v 0 h -8.446 q -7.17592,0 -7.17592,-6.73139 v 0 -34.29201 q 0,-6.66789 7.17592,-6.66789 z m 8.70001,39.94384 v 0 -32.19639 q 0,-1.33358 -0.50803,-1.7781 -0.44452,-0.44453 -1.7781,-0.44453 v 0 h -4.44526 q -1.39708,0 -1.7781,0.44453 -0.44453,0.44452 -0.44453,1.7781 v 0 32.19639 q 0,1.33357 0.44453,1.7781 0.38102,0.38102 1.7781,0.38102 v 0 h 4.44526 q 1.33358,0 1.7781,-0.38102 0.50803,-0.44453 0.50803,-1.7781 z m 49.15188,0 v -39.94384 h 6.92191 v 40.9599 q 0,6.73139 -7.17592,6.73139 v 0 h -8.44599 q -7.17593,0 -7.17593,-6.73139 v 0 -40.9599 h 6.92191 v 39.94384 q 0,1.33357 0.44453,1.7781 0.50803,0.38102 1.8416,0.38102 v 0 h 4.38176 q 1.39708,0 1.84161,-0.38102 0.44452,-0.44453 0.44452,-1.7781 z m 50.67597,-6.47738 v -33.46646 h 6.28687 v 47.69129 h -6.9219 L 663.50056,362.3947 v 34.41902 h -6.35037 v -47.69129 h 7.23942 z m 33.40296,14.22483 v -47.69129 h 16.63798 q 7.11241,0 7.11241,6.66789 v 0 34.29201 q 0,6.73139 -7.11241,6.73139 v 0 z m 16.76498,-7.62045 v 0 -32.4504 q 0,-1.39708 -0.44452,-1.7781 -0.44453,-0.44453 -1.84161,-0.44453 v 0 h -7.49344 v 36.89566 h 7.49344 q 1.39708,0 1.84161,-0.44452 0.44452,-0.38102 0.44452,-1.77811 z"
     id="path89"
     style="fill:#495057;fill-opacity:1;stroke-width:6.35037" />
  <g
     id="g1190"
     transform="matrix(1.4937635,0,0,1.4937635,13.481087,20.786093)"
     style="fill:#0078d4;fill-opacity:1">
    <g
       id="g1425"
       style="fill:#0078d4;fill-opacity:1">
      <path
         id="line8"
         style="fill:#0078d4;fill-opacity:1;stroke:#0078d4;stroke-width:8;stroke-linecap:round;stroke-miterlimit:10"
         d="M 26.889999,37.505001 108.329,16.034" />
      <path
         id="line10"
         style="fill:#0078d4;fill-opacity:1;stroke:#0078d4;stroke-width:8;stroke-linecap:round;stroke-miterlimit:10"
         d="M 108.329,17.158001 126.376,126.299" />
      <path
         id="line12"
         style="fill:#0078d4;fill-opacity:1;stroke:#0078d4;stroke-width:8;stroke-linecap:round;stroke-miterlimit:10"
         d="M 126.376,127.391 25.764,105.985" />
      <path
         id="line14"
         style="fill:#0078d4;fill-opacity:1;stroke:#0078d4;stroke-width:8;stroke-linecap:round;stroke-miterlimit:10"
         d="M 24.311001,105.397 27.216999,38.476002" />
    </g>
    <g
       id="g1439"
       style="fill:#0078d4;fill-opacity:1">
      <g
         id="g22"
         style="fill:#0078d4;fill-opacity:1;stroke:#0078d4;stroke-opacity:1">
        <path
           id="rect18"
           style="fill:#0078d4;fill-opacity:1;stroke-width:2;stroke-linejoin:bevel;stroke-miterlimit:10"
           d="m 110.198,109.037 h 27.84 v 26.674 h -27.84 z" />
        <path
           id="rect20"
           style="fill:#0078d4;fill-opacity:1;stroke-width:2;stroke-linejoin:bevel;stroke-miterlimit:10"
           d="m 115.967,113.892 h 17.306 v 16.052 h -17.306 z" />
      </g>
      <g
         id="g28"
         style="fill:#0078d4;fill-opacity:1;stroke:#0078d4;stroke-opacity:1">
        <path
           id="rect24"
           style="fill:#0078d4;fill-opacity:1;stroke-width:2;stroke-linejoin:bevel;stroke-miterlimit:10"
           d="M 94.408997,3.8210001 H 122.249 V 30.495 H 94.408997 Z" />
        <path
           id="rect26"
           style="fill:#0078d4;fill-opacity:1;stroke-width:2;stroke-linejoin:bevel;stroke-miterlimit:10"
           d="m 100.178,8.6750002 h 17.306 V 24.727 h -17.306 z" />
      </g>
      <g
         id="g34"
         style="fill:#0078d4;fill-opacity:1;stroke:#0078d4;stroke-opacity:1">
        <path
           id="rect30"
           style="fill:#0078d4;fill-opacity:1;stroke-width:2;stroke-linejoin:bevel;stroke-miterlimit:10"
           d="m 13.297,92.060997 h 27.84 V 118.735 h -27.84 z" />
        <path
           id="rect32"
           style="fill:#0078d4;fill-opacity:1;stroke-width:2;stroke-linejoin:bevel;stroke-miterlimit:10"
           d="M 19.065001,96.915001 H 36.371 V 112.967 H 19.065001 Z" />
      </g>
      <g
         id="g40"
         style="fill:#0078d4;fill-opacity:1;stroke:#0078d4;stroke-opacity:1">
        <path
           id="rect36"
           style="fill:#0078d4;fill-opacity:1;stroke-width:2;stroke-linejoin:bevel;stroke-miterlimit:10"
           d="M 12.97,25.139 H 40.81 V 51.813 H 12.97 Z" />
        <path
           id="rect38"
           style="fill:#0078d4;fill-opacity:1;stroke-width:2;stroke-linejoin:bevel;stroke-miterlimit:10"
           d="m 18.738001,29.993999 h 17.306 V 46.046 h -17.306 z" />
      </g>
    </g>
  </g>
  <defs
     id="defs1464">
    <filter
       id="colors9899641474"
       x="0"
       y="0"
       width="1"
       height="1">
      <feColorMatrix
         type="matrix"
         values="0 0 0 0 0.19921875  0 0 0 0 0.19921875  0 0 0 0 0.19921875  0 0 0 1 0"
         class="icon-fecolormatrix"
         id="feColorMatrix12" />
    </filter>
    <filter
       id="colors9692127843"
       x="0"
       y="0"
       width="1"
       height="1">
      <feColorMatrix
         type="matrix"
         values="0 0 0 0 0.19921875  0 0 0 0 0.19921875  0 0 0 0 0.19921875  0 0 0 1 0"
         class="icon-fecolormatrix"
         id="feColorMatrix37" />
    </filter>
    <filter
       id="colors4200494758"
       x="0"
       y="0"
       width="1"
       height="1">
      <feColorMatrix
         type="matrix"
         values="0 0 0 0 0.19921875  0 0 0 0 0.19921875  0 0 0 0 0.19921875  0 0 0 1 0"
         class="icon-fecolormatrix"
         id="feColorMatrix62" />
    </filter>
  </defs>
  <rect
     fill="#333333"
     fill-opacity="0"
     stroke-width="2.05108"
     x="1195.6283"
     y="-167.55316"
     width="72.092201"
     height="50"
     class="image-rect"
     id="rect4" />
  <g
     id="g3"
     style="fill:#495057;fill-opacity:1">
    <g
       id="g1285"
       transform="matrix(2.2187783,0,0,2.1096329,927.58964,-890.34692)"
       style="fill:#495057;fill-opacity:1">
      <path
         fill="#323333"
         d="M 20.56,54.19 44.52,22.86 51.83,32.4 60.05,6 h 6.09 l -12.07,38.75 -9.56,-12.48 -3.78,4.93 13,16.99 h 3.68 L 74.29,0 H 55.64 L 49.55,19.55 44.52,12.99 20.22,44.75 8.15,6 h 6.09 L 22.46,32.4 40.92,8.28 37.14,3.35 24.74,19.55 18.65,0 H 0 l 16.88,54.19 z"
         id="path6"
         transform="matrix(1.2172002,0,0,1.2172002,-307.6923,433.5443)"
         style="filter:url(#colors9899641474);fill:#495057;fill-opacity:1" />
      <path
         d="M 12.05,16.76 V 6 H 6 v 42.19 h 6.05 V 26 L 34.2,0 H 57.72 L 36.47,25 61.12,54.19 H 37.6 l -13.5,-16 v -9.3 l 16.29,19.3 h 7.79 L 28.6,25 44.76,6 H 37 L 18.05,28.2 v 26 H 0 V 0 h 18.05 v 9.72 z"
         fill="#323333"
         id="path31"
         transform="matrix(1.226971,0,0,1.226971,-216.07896,433.5443)"
         style="filter:url(#colors9692127843);fill:#495057;fill-opacity:1" />
      <path
         d="M 33.11,11.91 A 15.06,15.06 0 0 0 18.07,27 v 27 h 18 V 24 h -6 v 24 h -6 V 27 a 9.05,9.05 0 0 1 9,-9 H 54.18 V 0 H 0 v 17.91 h 13.88 a 17.93,17.93 0 0 1 5,-6 H 6 V 6 h 42.18 v 5.91 z"
         fill="#323333"
         id="path56"
         transform="matrix(1.2303768,0,0,1.2303768,-143.89896,433.5443)"
         style="filter:url(#colors4200494758);fill:#495057;fill-opacity:1" />
    </g>
    <path
       style="fill:#495057;fill-opacity:1;stroke-width:8.20443;stroke-linejoin:round;stroke-miterlimit:5"
       d="M 268.09049,94.361171 C 255.72864,56.595289 245.50464,25.37201 245.37048,24.976107 c -0.19428,-0.573327 4.84601,-0.68954 24.76585,-0.571021 l 25.00977,0.148804 8.10736,24.726334 c 4.45905,13.599483 8.2296,24.848565 8.37899,24.997959 0.1494,0.149394 7.66382,-8.921782 16.69872,-20.158168 9.03491,-11.236387 16.62588,-20.429794 16.86885,-20.429794 0.44956,0 9.68934,11.324656 9.68934,11.875661 0,0.46093 -48.49479,60.622208 -49.00741,60.797228 -0.2469,0.0843 -5.34699,-14.81935 -11.33355,-33.119201 l -10.88466,-33.27246 -8.42648,-0.158425 c -7.83834,-0.147368 -8.40751,-0.08759 -8.15473,0.856531 1.5316,5.720319 32.24431,98.333655 32.57371,98.225135 0.24277,-0.08 15.06821,-18.32604 32.94542,-40.546813 l 32.50402,-40.401404 6.70327,8.275532 c 3.6868,4.551542 6.83739,8.141413 7.00131,7.97749 0.16392,-0.163922 3.9303,-11.401243 8.36971,-24.971823 l 8.07168,-24.673782 24.92949,-0.148757 c 13.71122,-0.08182 24.9295,0.0071 24.9295,0.197602 0,0.190498 -9.52054,29.422321 -21.15676,64.959606 -11.6362,35.537289 -21.8072,66.604679 -22.60221,69.038659 l -1.44545,4.42541 h -4.98975 -4.98975 l -17.27584,-21.46128 c -9.50171,-11.80371 -17.1559,-21.76088 -17.00932,-22.12705 0.3477,-0.86857 8.9753,-11.48214 9.44872,-11.62371 0.19963,-0.0597 6.00765,6.94244 12.90671,15.56032 6.89905,8.61786 12.68929,15.66885 12.86719,15.66885 0.305,0 32.5541,-98.015625 32.54972,-98.929336 -0.001,-0.235546 -3.71653,-0.428265 -8.25645,-0.428265 h -8.25439 L 396.2788,72.091363 c -5.84334,17.822984 -10.80782,33.003317 -11.03217,33.734067 -0.36212,1.17952 -1.49332,-0.0222 -10.0779,-10.706635 -5.31849,-6.619403 -9.82936,-12.035283 -10.02414,-12.035283 -0.19479,0 -14.82006,17.987148 -32.5006,39.971448 l -32.14644,39.97145 h -4.96548 -4.96548 z"
       id="path1" />
    <path
       style="fill:#495057;fill-opacity:1;stroke-width:8.20443;stroke-linejoin:round;stroke-miterlimit:5"
       d="M 448.53676,94.218415 V 24.26838 h 24.26838 24.26838 v 12.604808 12.604809 l -7.85154,8.710741 -7.85153,8.710741 -0.15291,-13.60677 -0.1529,-13.60677 h -8.26965 -8.26965 v 54.817987 54.817984 h 8.2798 8.2798 V 120.52557 91.729233 l 30.12134,-33.693839 30.12134,-33.693841 31.86754,-0.03659 31.86754,-0.03659 -11.6265,12.990721 c -47.81399,53.424359 -46.23392,51.593284 -45.38197,52.591069 0.44243,0.518167 15.18012,17.130557 32.75041,36.916427 17.57029,19.78586 32.14365,36.2955 32.38524,36.68808 0.34937,0.56771 -6.02532,0.71377 -31.15163,0.71377 h -31.5909 l -18.11648,-20.41399 -18.11647,-20.41399 -0.005,-11.69294 -0.005,-11.692952 1.35407,1.414572 c 0.74475,0.77802 10.64114,11.88567 21.99201,24.68367 l 20.63793,23.26909 h 10.55618 c 5.80589,0 10.55617,-0.14328 10.55617,-0.3184 0,-0.27251 -36.59488,-41.72139 -48.90122,-55.387547 l -4.14193,-4.599595 19.14602,-21.381845 C 555.93394,55.874499 565.8384,44.775154 567.41354,42.969301 l 2.86389,-3.283369 h -10.7763 -10.77603 l -25.79642,28.69379 -25.79642,28.69379 -0.0294,33.547468 -0.0294,33.54746 H 472.80508 448.5367 Z"
       id="path2" />
    <path
       style="fill:#495057;fill-opacity:1;stroke-width:8.20443;stroke-linejoin:round;stroke-miterlimit:5"
       d="m 658.1098,126.62384 c 0.007,-30.382241 0.16283,-38.199155 0.81775,-40.975692 3.33919,-14.15641 14.77981,-25.245705 30.10472,-29.180252 2.95355,-0.758297 7.98547,-0.979434 27.4721,-1.20731 l 23.85626,-0.278973 -0.1589,-7.505082 -0.1589,-7.505082 -57.81585,-0.145474 -57.81585,-0.145473 v 7.711497 7.711499 h 17.42684 17.42683 l -3.96991,3.745015 c -2.18345,2.059759 -5.18866,5.52871 -6.67823,7.70878 l -2.70832,3.963763 H 627.16545 608.42256 V 47.394718 24.26838 h 73.66167 73.66167 v 23.090561 23.09056 l -30.69237,0.18523 c -30.25791,0.182608 -30.74351,0.203622 -34.30618,1.484538 -6.95351,2.500054 -11.47586,6.437022 -14.5475,12.664457 l -1.8244,3.698786 -0.15728,30.435468 -0.15727,30.43546 8.15156,-0.15852 8.15157,-0.15852 0.14763,-31.26338 0.14763,-31.263384 h 7.98941 7.98942 v 38.829404 38.82941 h -24.26838 -24.26838 z"
       id="path3" />
  </g>
  <text
     xml:space="preserve"
     style="font-style:normal;font-variant:normal;font-weight:normal;font-stretch:normal;font-size:75.2419px;line-height:1.85;font-family:'Torus Biline';-inkscape-font-specification:'Torus Biline';letter-spacing:26.29px;word-spacing:0.0144283px;stroke-width:1.88105;fill:#495057;fill-opacity:1"
     x="268.99854"
     y="227.29494"
     id="text3"><tspan
       sodipodi:role="line"
       id="tspan3"
       x="268.99854"
       y="227.29494"
       style="font-style:normal;font-variant:normal;font-weight:normal;font-stretch:normal;line-height:1.85;font-family:'Torus Biline';-inkscape-font-specification:'Torus Biline';letter-spacing:26.29px;word-spacing:0.0144283px;stroke-width:1.88105;fill:#495057;fill-opacity:1">PLOTTER</tspan></text>
</svg>
